<?xml version="1.0" encoding="utf-8"?>
<!-- Generator: Adobe Illustrator 23.0.1, SVG Export Plug-In . SVG Version: 6.00 Build 0)  -->
<svg version="1.1" id="Layer_1" xmlns="http://www.w3.org/2000/svg" xmlns:xlink="http://www.w3.org/1999/xlink" x="0px" y="0px"
	 viewBox="0 0 792 612" style="enable-background:new 0 0 792 612;" xml:space="preserve">
<style type="text/css">
	.st0{fill:#086DB4;}
	.st1{fill:#FFFFFF;}
	.st2{fill:#E7E9ED;}
	.st3{fill:#52C8EB;}
	.st4{fill:#87D4EE;}
	.st5{fill:#F06465;}
</style>
<ellipse transform="matrix(0.7071 -0.7071 0.7071 0.7071 -100.4906 369.7856)" class="st0" cx="396.1" cy="306.2" rx="104.4" ry="104.4"/>
<path class="st1" d="M372.7,383.4l88.7-24.2c2.4-0.6,3.7-3.1,3-5.4L436.6,252l-16.7,4.6c-2.4,0.6-4.8-0.7-5.4-3l-4.6-16.7
	l-72.1,19.8c-2.4,0.6-3.7,3.1-3,5.4l32.5,118.2C368,382.6,370.3,384,372.7,383.4z"/>
<path class="st2" d="M414.5,253.8c0.6,2.4,3.1,3.7,5.4,3l16.7-4.6L410,237.1L414.5,253.8z"/>
<path class="st3" d="M390.7,274.7c2.6,9.8-3.2,19.9-13,22.5c-9.8,2.6-19.9-3.2-22.5-13c-2.6-9.8,3.2-19.9,13-22.5l4.8,17.7
	L390.7,274.7z"/>
<path class="st4" d="M393.6,269.6l-17.7,4.8l-4.8-17.7C380.9,254,390.9,259.8,393.6,269.6z"/>
<g>
	
		<rect x="395.8" y="314.8" transform="matrix(0.9657 -0.2598 0.2598 0.9657 -67.9723 119.6711)" class="st2" width="45.8" height="4.5"/>
	
		<rect x="398.5" y="325.3" transform="matrix(0.9657 -0.2598 0.2598 0.9657 -70.8073 119.283)" class="st2" width="34.8" height="4.5"/>
</g>
<polygon class="st5" points="377.6,340.2 368.9,335.2 370.7,331.9 376.3,335.2 384.3,321.3 387.5,323.2 "/>
<g>
	
		<rect x="402.8" y="340.4" transform="matrix(0.9656 -0.2599 0.2599 0.9656 -74.4118 122.4108)" class="st2" width="45.8" height="4.5"/>
	
		<rect x="405.4" y="350.8" transform="matrix(0.9656 -0.2599 0.2599 0.9656 -77.2253 122.0257)" class="st2" width="34.8" height="4.5"/>
</g>
<polygon class="st5" points="384.5,365.7 375.8,360.6 377.6,357.4 383.1,360.6 391.1,346.8 394.3,348.6 "/>
<rect x="404" y="282.9" transform="matrix(0.9656 -0.2599 0.2599 0.9656 -61.1343 115.7009)" class="st3" width="6" height="12.2"/>
<rect x="413.7" y="265.3" transform="matrix(0.9657 -0.2596 0.2596 0.9657 -58.096 117.7231)" class="st2" width="6" height="27"/>
<rect x="426.3" y="270.1" transform="matrix(0.9657 -0.2597 0.2597 0.9657 -57.8717 121.0843)" class="st3" width="6" height="18.9"/>
</svg>
