<svg width="50px" height="50px" viewBox="10 0 50 50" version="1.1" xmlns="http://www.w3.org/2000/svg">
  <g fill="white">
    <g transform="translate(10.5,1)">
      <polygon points="23.6352941 0 23.6352941 49 25.3647059 49 25.3647059 0"/>
      <polygon points="49 25.3647059 49 23.6352941 0 23.6352941 0 25.3647059"/>
      <path d="M11.4472197,20.0965303 C10.3986084,20.0965303 9.39336035,19.8901139 8.43144531,19.4772748 C7.46953027,19.0644357 6.61703037,18.4699564 5.87392004,17.6938189 C5.13906649,16.9176815 4.55284379,15.97023 4.11523438,14.8514361 C3.67762496,13.7326422 3.45882353,12.4714378 3.45882353,11.0677849 C3.45882353,9.66413207 3.67349663,8.39054264 4.10284926,7.2469784 C4.5322019,6.10341417 5.12668125,5.11880774 5.88630515,4.2931296 C6.63767226,3.47570823 7.52526296,2.84407392 8.54910386,2.39820772 C9.57294476,1.95234152 10.6669519,1.72941176 11.8311581,1.72941176 C12.6981201,1.72941176 13.4825026,1.83674831 14.184329,2.05142463 C14.8861555,2.26610095 15.5549447,2.56746895 16.1907169,2.95553768 L16.6985064,2.11335018 L17.6893153,2.11335018 L17.8007813,8.38021599 L16.7852022,8.38021599 C16.6530937,7.76921416 16.4549339,7.10661739 16.1907169,6.39240579 C15.9264999,5.67819419 15.6168752,5.07339402 15.2618336,4.57798713 C14.8655081,4.01652599 14.3948786,3.57685897 13.8499311,3.25897289 C13.3049835,2.9410868 12.6816058,2.78214614 11.9797794,2.78214614 C11.1788716,2.78214614 10.4337083,2.95966428 9.744267,3.31470588 C9.05482575,3.66974749 8.45828224,4.19404525 7.95461857,4.88761489 C7.47572524,5.55641419 7.10004732,6.40684993 6.82757353,7.43894761 C6.55509974,8.4710453 6.41886489,9.62284903 6.41886489,10.8943934 C6.41886489,12.0173157 6.56129223,13.0473337 6.84615119,13.9844784 C7.13101016,14.9216231 7.53765054,15.7452247 8.06608456,16.4553079 C8.59451857,17.1571343 9.21996039,17.7062021 9.94242877,18.1025276 C10.6648971,18.4988531 11.4719854,18.6970129 12.3637178,18.6970129 C13.0325171,18.6970129 13.6476381,18.5917405 14.2090993,18.3811926 C14.7705604,18.1706446 15.2577032,17.8919824 15.6705423,17.5451976 C16.0833814,17.1818992 16.4466743,16.7690663 16.760432,16.3066866 C17.0741897,15.8443068 17.3301461,15.3406507 17.5283088,14.7957031 L18.4571921,15.2415671 C17.7471089,16.983748 16.8058499,18.2284391 15.6333869,18.9756778 C14.460924,19.7229166 13.0655488,20.0965303 11.4472197,20.0965303 L11.4472197,20.0965303 Z" />
      <path d="M46.9384421,1.39388787 C47.7063228,1.39388787 48.0902574,1.6993842 48.0902574,2.31038603 C48.0902574,3.21863199 47.3884415,4.23832921 45.9847886,5.36950827 C44.64719,6.43463308 43.0041151,7.35937874 41.0555147,8.14377298 C39.0078329,8.95293756 37.1211866,9.39879707 35.3955193,9.48136489 C32.8441738,12.2969274 31.5685202,14.5055833 31.5685202,16.1073989 C31.5685202,17.3789432 32.1712562,18.1385557 33.3767463,18.3862592 C33.3767463,16.1569282 34.1446155,14.1381754 35.6803768,12.3299403 C36.6299067,11.2152748 37.7074005,10.4391489 38.9128906,10.0015395 C39.5073789,9.77860642 40.1328207,9.66714154 40.7892348,9.66714154 C41.445649,9.66714154 41.9554976,9.8260822 42.318796,10.1439683 C42.6820943,10.4618544 42.8637408,10.8684948 42.8637408,11.3639017 C42.8637408,11.8593085 42.7584684,12.3815421 42.5479205,12.9306181 C42.3373726,13.4796941 42.0421971,14.0266976 41.6623851,14.5716452 C41.2825732,15.1165928 40.8222645,15.6429547 40.2814453,16.1507468 C39.7406261,16.6585388 39.1399543,17.1064625 38.4794118,17.4945312 C37.034475,18.3449797 35.527635,18.7701976 33.9588465,18.7701976 L33.8473805,18.7701976 C33.8143534,18.7701976 33.7771984,18.7660693 33.7359145,18.7578125 C33.7854552,20.1944925 34.0290266,21.1976764 34.466636,21.7673943 C34.4996632,21.8086782 34.5161765,21.8417048 34.5161765,21.8664752 L34.5161765,21.9284007 C34.5161765,21.9696846 34.4790215,21.9903263 34.4047105,21.9903263 C34.0909528,21.9903263 33.7978414,21.3380503 33.5253676,20.0334789 C33.4427998,19.6371533 33.3932599,19.2036788 33.3767463,18.7330423 C32.1629994,18.5679066 31.3497187,17.944529 30.9368796,16.8628906 C30.8047711,16.507849 30.7387178,16.0991445 30.7387178,15.6367647 C30.7387178,13.7046778 31.6180519,11.6074868 33.3767463,9.34512868 C31.989607,9.03137098 31.1061447,8.3171701 30.7263327,7.2025046 C30.6107378,6.85571977 30.5529412,6.48417018 30.5529412,6.08784467 C30.5529412,5.69151916 30.6602777,5.27662211 30.874954,4.84314108 C31.0896304,4.40966006 31.3889342,3.98857052 31.7728745,3.57985983 C32.1568149,3.17114915 32.6150594,2.78515041 33.1476218,2.42185202 C33.6801842,2.05855364 34.2643427,1.74067232 34.9001149,1.46819853 C36.2872542,0.873710263 37.6991426,0.576470588 39.1358226,0.576470588 C39.8046219,0.576470588 40.1390165,0.646652178 40.1390165,0.787017463 C40.1390165,0.853071715 40.0853483,0.886098346 39.9780101,0.886098346 L39.0738971,0.836557904 C37.3317162,0.836557904 35.5895614,1.4227806 33.8473805,2.59524357 C32.7244582,3.34661068 31.9276908,4.19291809 31.4570542,5.13419118 C31.2093508,5.62134128 31.0855009,6.05687997 31.0855009,6.44082031 C31.0855009,6.82476065 31.1412334,7.14264197 31.2526999,7.39447381 C31.3641665,7.64630564 31.5231071,7.87955622 31.7295267,8.09423254 C32.1753929,8.5566123 32.7987705,8.87862195 33.5996783,9.06027114 C35.3336024,6.91350795 37.4349218,5.11355659 39.9036994,3.66036305 C42.4798153,2.14937204 44.824706,1.39388787 46.9384421,1.39388787 L46.9384421,1.39388787 Z M47.7930147,2.34754136 C47.7930147,1.90993194 47.4710051,1.69113051 46.8269761,1.69113051 C45.6379996,1.69113051 43.9329998,2.45487135 41.7119256,3.98237592 C39.5486488,5.45208302 37.5464093,7.17359614 35.7051471,9.14696691 C37.9922755,8.89926347 40.5766094,7.96213283 43.4582261,6.33554687 C45.1673799,5.36950344 46.4182635,4.4323728 47.2109145,3.52412684 C47.5989833,3.07826064 47.7930147,2.6860694 47.7930147,2.34754136 L47.7930147,2.34754136 Z M33.7359145,18.4357996 C33.793712,18.4440564 33.8515086,18.4481847 33.9093061,18.4481847 L34.0950827,18.4481847 C35.143694,18.4481847 36.2954977,17.9775553 37.5505285,17.0362822 C38.665194,16.1940905 39.6436079,15.1620083 40.4857996,13.9400046 C41.3114778,12.7345145 41.7243107,11.7437156 41.7243107,10.9675781 C41.7243107,10.6207933 41.6334874,10.3730936 41.4518382,10.2244715 C41.270189,10.0758494 40.9626285,10.0015395 40.5291475,10.0015395 C40.0956665,10.0015395 39.6188445,10.1006194 39.0986673,10.2987822 C38.57849,10.4969449 38.0645131,10.7776713 37.556721,11.1409697 C37.048929,11.5042681 36.5638504,11.9418709 36.1014706,12.4537914 C35.6390908,12.9657118 35.2303863,13.5354212 34.8753447,14.1629366 C34.1157208,15.5170487 33.7359145,16.9371939 33.7359145,18.4234145 L33.7359145,18.4357996 Z" />
      <path d="M16.4340235,39.8959922 C16.3325642,40.5047481 16.1423308,41.0500839 15.8633176,41.5320157 C15.5843045,42.0139475 15.2503392,42.4240062 14.8614118,42.7622039 C14.4724843,43.1004017 14.0286064,43.3582736 13.5297647,43.5358275 C13.030923,43.7133813 12.5024969,43.8021569 11.9444706,43.8021569 C11.1327959,43.8021569 10.3972268,43.658425 9.73774118,43.3709569 C9.07825553,43.0834888 8.51178276,42.6818849 8.03830588,42.1661333 C7.56482901,41.6503817 7.20127186,41.0416349 6.94762353,40.3398745 C6.6939752,39.6381141 6.56715294,38.881408 6.56715294,38.0697333 C6.56715294,37.3087884 6.68974779,36.5943563 6.93494118,35.9264157 C7.18013456,35.2584751 7.53100948,34.6835475 7.98757647,34.2016157 C8.44414346,33.7196839 9.00216141,33.3349897 9.66164706,33.0475216 C10.3211327,32.7600535 11.0651566,32.6163216 11.8937412,32.6163216 C13.0605235,32.6163216 14.0624193,32.941832 14.8994588,33.5928627 C15.7364983,34.2438935 16.2395599,35.1950604 16.4086588,36.4463922 L14.6838588,36.4463922 C14.5485797,35.8038164 14.2315241,35.2796177 13.7326824,34.8737804 C13.2338406,34.4679431 12.6208664,34.2650275 11.8937412,34.2650275 C11.3526247,34.2650275 10.879155,34.3664853 10.4733176,34.5694039 C10.0674803,34.7723226 9.72506022,35.0428767 9.44604706,35.3810745 C9.1670339,35.7192723 8.95566346,36.1208761 8.81192941,36.585898 C8.66819536,37.05092 8.59632941,37.5455268 8.59632941,38.0697333 C8.59632941,38.6277597 8.67242277,39.1519583 8.82461176,39.6423451 C8.97680076,40.1327319 9.20085342,40.5639276 9.49677647,40.9359451 C9.79269952,41.3079626 10.1478019,41.6038813 10.5620941,41.8237098 C10.9763864,42.0435384 11.4371739,42.153451 11.9444706,42.153451 C12.7054156,42.153451 13.3310721,41.9420805 13.8214588,41.5193333 C14.3118456,41.0965861 14.5993094,40.5554778 14.6838588,39.8959922 L16.4340235,39.8959922 Z M18.8944,38.0697333 C18.8944,36.9198609 18.708394,35.8630087 18.3363765,34.8991451 C17.9643589,33.9352815 17.4486151,33.1067093 16.7891294,32.4134039 C16.1296438,31.7200985 15.3602554,31.1832176 14.4809412,30.8027451 C13.601627,30.4222726 12.6546874,30.2320392 11.6400941,30.2320392 C10.6085909,30.2320392 9.64896914,30.4222726 8.7612,30.8027451 C7.87343086,31.1832176 7.09981506,31.7200985 6.44032941,32.4134039 C5.78084376,33.1067093 5.2650999,33.9352815 4.89308235,34.8991451 C4.52106481,35.8630087 4.33505882,36.9198609 4.33505882,38.0697333 C4.33505882,39.1519662 4.50415517,40.1665443 4.84235294,41.113498 C5.18055071,42.0604518 5.66670271,42.8890239 6.30082353,43.5992392 C6.93494435,44.3094545 7.70010532,44.8716999 8.59632941,45.2859922 C9.4925535,45.7002844 10.5071316,45.9074275 11.6400941,45.9074275 C12.6546874,45.9074275 13.601627,45.7171941 14.4809412,45.3367216 C15.3602554,44.9562491 16.1296438,44.4193682 16.7891294,43.7260627 C17.4486151,43.0327573 17.9643589,42.2084126 18.3363765,41.2530039 C18.708394,40.2975952 18.8944,39.2365156 18.8944,38.0697333 L18.8944,38.0697333 Z M20.9235765,38.0697333 C20.9235765,39.490164 20.6741594,40.783751 20.1753176,41.9505333 C19.6764759,43.1173156 19.0000905,44.1149841 18.1461412,44.9435686 C17.2921918,45.7721532 16.3029782,46.4147193 15.1784706,46.8712863 C14.053963,47.3278533 12.874516,47.5561333 11.6400941,47.5561333 C10.2703932,47.5561333 9.01485277,47.315171 7.87343529,46.8332392 C6.73201782,46.3513074 5.751259,45.6876042 4.93112941,44.8421098 C4.11099982,43.9966154 3.4684337,42.9947195 3.00341176,41.8363922 C2.53838983,40.6780648 2.30588235,39.4225244 2.30588235,38.0697333 C2.30588235,36.6493027 2.55529947,35.3557156 3.05414118,34.1889333 C3.55298289,33.022151 4.22936828,32.0244826 5.08331765,31.195898 C5.93726701,30.3673135 6.93070806,29.7247474 8.06367059,29.2681804 C9.19663312,28.8116134 10.3887624,28.5833333 11.6400941,28.5833333 C12.874516,28.5833333 14.053963,28.8116134 15.1784706,29.2681804 C16.3029782,29.7247474 17.2921918,30.3673135 18.1461412,31.195898 C19.0000905,32.0244826 19.6764759,33.022151 20.1753176,34.1889333 C20.6741594,35.3557156 20.9235765,36.6493027 20.9235765,38.0697333 L20.9235765,38.0697333 Z" />
      <path d="M33.1470588,47.5588235 L33.1470588,44.9647059 L35.7411765,44.9647059 L38.3352941,44.9647059 L40.9294118,44.9647059 L40.9294118,47.5588235 L38.3352941,47.5588235 L35.7411765,47.5588235 L33.1470588,47.5588235 L33.1470588,47.5588235 Z M30.5529412,44.9647059 L30.5529412,42.3705882 L30.5529412,39.7764706 L30.5529412,37.1823529 L30.5529412,34.5882353 L30.5529412,31.9941176 L33.1470588,31.9941176 L33.1470588,34.5882353 L33.1470588,37.1823529 L33.1470588,39.7764706 L33.1470588,42.3705882 L33.1470588,44.9647059 L30.5529412,44.9647059 L30.5529412,44.9647059 Z M33.1470588,31.9941176 L33.1470588,29.4 L35.7411765,29.4 L38.3352941,29.4 L40.9294118,29.4 L40.9294118,31.9941176 L38.3352941,31.9941176 L35.7411765,31.9941176 L33.1470588,31.9941176 L33.1470588,31.9941176 Z M40.9294118,34.5882353 L40.9294118,31.9941176 L43.5235294,31.9941176 L43.5235294,34.5882353 L40.9294118,34.5882353 L40.9294118,34.5882353 Z M40.9294118,44.9647059 L40.9294118,42.3705882 L43.5235294,42.3705882 L43.5235294,44.9647059 L40.9294118,44.9647059 L40.9294118,44.9647059 Z" />
    </g>
  </g>
</svg>